<svg id="landingpage_ic.svg" xmlns="http://www.w3.org/2000/svg" width="36" height="65" viewBox="0 0 36 65">
  <defs>
    <style>
      .cls-1 {
        fill: #4e71a0;
      }

      .cls-1, .cls-3, .cls-4 {
        fill-rule: evenodd;
      }

      .cls-2, .cls-4 {
        fill: #9ecaff;
      }

      .cls-2 {
        stroke: #4e71a0;
        stroke-linejoin: round;
        stroke-width: 2px;
      }

      .cls-3 {
        fill: #fff;
      }
    </style>
  </defs>
  <path id="形状_19" data-name="形状 19" class="cls-1" d="M492,269H464a4,4,0,0,0-4,4v50a4,4,0,0,0,4,4h28a4,4,0,0,0,4-4V273A4,4,0,0,0,492,269Zm2,54a2,2,0,0,1-2,2H464a2,2,0,0,1-2-2V284h32v39Zm0-41H462v-9a2,2,0,0,1,2-2h28a2,2,0,0,1,2,2v9Z" transform="translate(-460 -269)"/>
  <circle id="椭圆_5" data-name="椭圆 5" class="cls-2" cx="14.5" cy="30.5" r="5.5"/>
  <path id="形状_21_拷贝" data-name="形状 21 拷贝" class="cls-3" d="M474.4,299.959a1.424,1.424,0,0,1,1.461,1.342v11.917a0.73,0.73,0,0,0,1.46,0v-3.245a1.464,1.464,0,0,1,2.921.031v4.659a0.731,0.731,0,0,0,1.461,0v-3.8a1.424,1.424,0,0,1,1.46-1.343,1.439,1.439,0,0,1,1.461,1.375v5.213a0.73,0.73,0,0,0,1.46,0v-3.245a1.464,1.464,0,0,1,2.921.031v11.6c0,4.624-4.157,7.075-4.971,7.511h-8.076c-2.521,0-4.966-5.313-6.752-9.192a32.1,32.1,0,0,0-2.391-4.627,1.717,1.717,0,0,1-.024-2.169,1.426,1.426,0,0,1,.987-0.459,1.111,1.111,0,0,1,.789.34l3.108,3.339a0.729,0.729,0,0,0,.536.233,0.74,0.74,0,0,0,.265-0.049,0.721,0.721,0,0,0,.464-0.673V301.332a1.438,1.438,0,0,1,1.46-1.373" transform="translate(-460 -269)"/>
  <path id="形状_21" data-name="形状 21" class="cls-1" d="M474.4,299.959a1.424,1.424,0,0,1,1.461,1.342v11.917a0.73,0.73,0,0,0,1.46,0v-3.245a1.464,1.464,0,0,1,2.921.031v3.214L481,314c0,0.4-.4,0,0,0s1,0.4,1,0l-0.3-.782v-2.355a1.424,1.424,0,0,1,1.46-1.343,1.439,1.439,0,0,1,1.461,1.375v5.213a0.73,0.73,0,0,0,1.46,0v-3.245a1.464,1.464,0,0,1,2.921.031v11.6c0,4.624-4.157,7.075-4.971,7.511h-8.076c-2.521,0-4.966-5.313-6.752-9.192a32.1,32.1,0,0,0-2.391-4.627,1.717,1.717,0,0,1-.024-2.169,1.426,1.426,0,0,1,.987-0.459,1.111,1.111,0,0,1,.789.34l3.108,3.339a0.729,0.729,0,0,0,.536.233,0.74,0.74,0,0,0,.265-0.049,0.721,0.721,0,0,0,.464-0.673V301.332a1.438,1.438,0,0,1,1.46-1.373m0-1.985a3.414,3.414,0,0,0-3.459,3.358v14.192l-0.906-.973-0.028-.03-0.03-.029a3.119,3.119,0,0,0-2.2-.919,3.426,3.426,0,0,0-2.4,1.039,3.653,3.653,0,0,0-.192,4.727,31.9,31.9,0,0,1,2.2,4.294c2.237,4.858,4.768,10.357,8.573,10.357h8.581l0.444-.238c1-.538,6.021-3.515,6.021-9.258v-11.6a3.414,3.414,0,0,0-3.459-3.358,3.575,3.575,0,0,0-1.14.186,3.462,3.462,0,0,0-3.242-2.186,3.548,3.548,0,0,0-1.653.4,3.494,3.494,0,0,0-2.728-1.3,3.585,3.585,0,0,0-.922.12V301.3a3.4,3.4,0,0,0-3.46-3.327h0ZM477,306a1,1,0,0,1,1,1v6a1,1,0,0,1-2,0v-6A1,1,0,0,1,477,306Zm4,2a1,1,0,0,1,1,1v5a1,1,0,0,1-2,0v-5A1,1,0,0,1,481,308Zm4,2a1,1,0,0,1,1,1v5a1,1,0,0,1-2,0v-5A1,1,0,0,1,485,310Z" transform="translate(-460 -269)"/>
  <path id="形状_19_拷贝" data-name="形状 19 拷贝" class="cls-4" d="M494,282H462v-9a2,2,0,0,1,2-2h28a2,2,0,0,1,2,2v9Z" transform="translate(-460 -269)"/>
  <path id="椭圆_5_拷贝_2" data-name="椭圆 5 拷贝 2" class="cls-1" d="M485,276a1,1,0,1,1-1,1A1,1,0,0,1,485,276Zm3,0a1,1,0,1,1-1,1A1,1,0,0,1,488,276Zm3,0a1,1,0,1,1-1,1A1,1,0,0,1,491,276Z" transform="translate(-460 -269)"/>
  <path id="圆角矩形_1_拷贝_3" data-name="圆角矩形 1 拷贝 3" class="cls-1" d="M464.234,276.433l2.345-2.211a0.867,0.867,0,0,1,1.175,0,0.751,0.751,0,0,1,0,1.108l-2.344,2.211a0.868,0.868,0,0,1-1.176,0A0.753,0.753,0,0,1,464.234,276.433Zm-0.006,0a0.868,0.868,0,0,1,1.176,0l2.356,2.222a0.751,0.751,0,0,1,0,1.108,0.867,0.867,0,0,1-1.175,0l-2.357-2.222A0.753,0.753,0,0,1,464.228,276.433Z" transform="translate(-460 -269)"/>
</svg>
