<svg id="appdownload_ic.svg" xmlns="http://www.w3.org/2000/svg" width="36" height="58" viewBox="0 0 36 58">
  <defs>
    <style>
      .cls-1 {
        fill: #9ecaff;
      }

      .cls-1, .cls-2 {
        fill-rule: evenodd;
      }

      .cls-2 {
        fill: #4e71a0;
      }
    </style>
  </defs>
  <path id="形状_17_拷贝" data-name="形状 17 拷贝" class="cls-1" d="M815,325a2,2,0,0,1-2,2H785a2,2,0,0,1-2-2v-4h32v4Z" transform="translate(-781 -271)"/>
  <path id="圆角矩形_1_拷贝_2" data-name="圆角矩形 1 拷贝 2" class="cls-2" d="M799,294a1,1,0,0,1,1,1v7a1,1,0,0,1-2,0v-7A1,1,0,0,1,799,294Zm-3.706,5.3a1.055,1.055,0,0,1,1.478,0l2.955,2.92a1.024,1.024,0,0,1,0,1.46,1.055,1.055,0,0,1-1.478,0l-2.955-2.92A1.024,1.024,0,0,1,795.294,299.3Zm2.955,2.92,2.956-2.92a1.053,1.053,0,0,1,1.477,0,1.022,1.022,0,0,1,0,1.46l-2.955,2.92a1.055,1.055,0,0,1-1.478,0A1.024,1.024,0,0,1,798.249,302.222ZM796,306h6a1,1,0,0,1,0,2h-6A1,1,0,0,1,796,306Z" transform="translate(-781 -271)"/>
  <path id="形状_17_拷贝_2" data-name="形状 17 拷贝 2" class="cls-1" d="M815,279H783v-4a2,2,0,0,1,2-2h28a2,2,0,0,1,2,2v4Z" transform="translate(-781 -271)"/>
  <path id="形状_17" data-name="形状 17" class="cls-2" d="M799,325a1,1,0,1,0-1-1A1,1,0,0,0,799,325Zm14-54H785a4,4,0,0,0-4,4v50a4,4,0,0,0,4,4h28a4,4,0,0,0,4-4V275A4,4,0,0,0,813,271Zm2,54a2,2,0,0,1-2,2H785a2,2,0,0,1-2-2v-4h32v4Zm0-6H783V281h32v38Zm0-40H783v-4a2,2,0,0,1,2-2h28a2,2,0,0,1,2,2v4Zm-14-4h-4a1,1,0,0,0,0,2h4A1,1,0,0,0,801,275Z" transform="translate(-781 -271)"/>
</svg>
