<?xml version="1.0" encoding="UTF-8"?>
<svg width="212px" height="439px" viewBox="0 0 212 439" version="1.1" xmlns="http://www.w3.org/2000/svg" xmlns:xlink="http://www.w3.org/1999/xlink">
    <!-- Generator: Sketch 48.2 (47327) - http://www.bohemiancoding.com/sketch -->
    <title>Group</title>
    <desc>Created with Sketch.</desc>
    <defs>
        <path d="M36,0 L176,0 C194.777681,-3.44940413e-15 210,15.2223185 210,34 L210,405 C210,423.777681 194.777681,439 176,439 L36,439 C17.2223185,439 2,423.777681 2,405 L2,34 C2,15.2223185 17.2223185,3.89765409e-14 36,3.55271368e-14 Z" id="path-1"></path>
        <path d="M15,53 L198,53 C199.104569,53 200,53.8954305 200,55 L200,383.014648 C200,384.119218 199.104569,385.014648 198,385.014648 L15,385.014648 C13.8954305,385.014648 13,384.119218 13,383.014648 L13,55 C13,53.8954305 13.8954305,53 15,53 Z" id="path-2"></path>
        <rect id="path-3" x="90" y="29" width="33" height="5" rx="2.5"></rect>
        <linearGradient x1="50%" y1="0%" x2="50%" y2="100%" id="linearGradient-4">
            <stop stop-color="#7E7E7E" offset="0%"></stop>
            <stop stop-color="#FFFFFF" offset="100%"></stop>
        </linearGradient>
    </defs>
    <g id="链接地址控件" stroke="none" stroke-width="1" fill="none" fill-rule="evenodd" transform="translate(-871.000000, -571.000000)">
        <g id="Group" transform="translate(871.000000, 571.000000)">
            <g id="Rectangle-2">
                <use fill="#F7F7F7" fill-rule="evenodd" xlink:href="#path-1"></use>
                <path stroke="#B1B3B9" stroke-width="1" d="M36,0.5 C17.4984609,0.5 2.5,15.4984609 2.5,34 L2.5,405 C2.5,423.501539 17.4984609,438.5 36,438.5 L176,438.5 C194.501539,438.5 209.5,423.501539 209.5,405 L209.5,34 C209.5,15.4984609 194.501539,0.5 176,0.5 L36,0.5 Z"></path>
            </g>
            <rect id="Rectangle-8" fill="#D4D3D3" x="0" y="58" width="2" height="16" rx="1"></rect>
            <rect id="Rectangle-8-Copy" fill="#D4D3D3" x="0" y="103" width="2" height="28" rx="1"></rect>
            <rect id="Rectangle-8-Copy-3" fill="#D4D3D3" x="210" y="101" width="2" height="32" rx="1"></rect>
            <rect id="Rectangle-8-Copy-2" fill="#D4D3D3" x="0" y="140" width="2" height="28" rx="1"></rect>
            <rect id="Rectangle-7" fill="#C4C4C4" x="1" y="58" width="2" height="16"></rect>
            <rect id="Rectangle-7-Copy" fill="#C4C4C4" x="1" y="103" width="2" height="28"></rect>
            <rect id="Rectangle-7-Copy-3" fill="#C4C4C4" x="209" y="101" width="2" height="32"></rect>
            <rect id="Rectangle-7-Copy-2" fill="#C4C4C4" x="1" y="140" width="2" height="28"></rect>
            <g id="Rectangle-6">
                <use fill="#E2E2E2" fill-rule="evenodd" xlink:href="#path-2"></use>
                <path stroke="#B1B3B9" stroke-width="1" d="M15,53.5 C14.1715729,53.5 13.5,54.1715729 13.5,55 L13.5,383.014648 C13.5,383.843076 14.1715729,384.514648 15,384.514648 L198,384.514648 C198.828427,384.514648 199.5,383.843076 199.5,383.014648 L199.5,55 C199.5,54.1715729 198.828427,53.5 198,53.5 L15,53.5 Z"></path>
            </g>
            <g id="Rectangle-66">
                <use fill="#A5A5A5" fill-rule="evenodd" xlink:href="#path-3"></use>
                <rect stroke="#D8D8D8" stroke-width="1" x="90.5" y="29.5" width="32" height="4" rx="2"></rect>
            </g>
            <circle id="Oval-17" fill="#D8D8D8" cx="106.5" cy="18.5" r="1.5"></circle>
            <circle id="Oval-17-Copy" fill="#D8D8D8" cx="79.5" cy="31.5" r="1.5"></circle>
            <path d="M106.5,429 C96.2827321,429 88,420.717268 88,410.5 C88,400.282732 96.2827321,392 106.5,392 C116.717268,392 125,400.282732 125,410.5 C125,420.717268 116.717268,429 106.5,429 Z M106.5,427 C115.612698,427 123,419.612698 123,410.5 C123,401.387302 115.612698,394 106.5,394 C97.3873016,394 90,401.387302 90,410.5 C90,419.612698 97.3873016,427 106.5,427 Z" id="Combined-Shape" fill="url(#linearGradient-4)"></path>
        </g>
    </g>
</svg>